<svg width="27" height="28" viewBox="0 0 27 28" fill="none" xmlns="http://www.w3.org/2000/svg">
<g id="select-ico">
<g id="select-icon">
<path id="Vector" d="M1.00098 5.07174C1.00098 4.12457 1.37724 3.21619 2.04699 2.54644C2.71674 1.87669 3.62512 1.50043 4.57229 1.50043" stroke="white" stroke-width="2" stroke-linecap="round" stroke-linejoin="round"/>
<path id="Vector_2" d="M26 5.07178C26 4.12461 25.6237 3.21624 24.954 2.54649C24.2842 1.87674 23.3759 1.50047 22.4287 1.50047" stroke="white" stroke-width="2" stroke-linecap="round" stroke-linejoin="round"/>
<path id="Vector_3" d="M26 22.9283C26 23.8755 25.6237 24.7839 24.954 25.4536C24.2842 26.1234 23.3759 26.4996 22.4287 26.4996" stroke="white" stroke-width="2" stroke-linecap="round" stroke-linejoin="round"/>
<path id="Vector_4" d="M1.00098 22.9283C1.00098 23.8755 1.37724 24.7839 2.04699 25.4536C2.71674 26.1234 3.62512 26.4996 4.57229 26.4996" stroke="white" stroke-width="2" stroke-linecap="round" stroke-linejoin="round"/>
<path id="Vector_5" d="M26 15.7857V19.357" stroke="white" stroke-width="2" stroke-linecap="round" stroke-linejoin="round"/>
<path id="Vector_6" d="M26 8.6431V12.2144" stroke="white" stroke-width="2" stroke-linecap="round" stroke-linejoin="round"/>
<path id="Vector_7" d="M1.00098 15.7857V19.357" stroke="white" stroke-width="2" stroke-linecap="round" stroke-linejoin="round"/>
<path id="Vector_8" d="M1.00098 8.6431V12.2144" stroke="white" stroke-width="2" stroke-linecap="round" stroke-linejoin="round"/>
<path id="Vector_9" d="M11.7149 1.50046H8.14355" stroke="white" stroke-width="2" stroke-linecap="round" stroke-linejoin="round"/>
<path id="Vector_10" d="M18.8574 1.50046H15.2861" stroke="white" stroke-width="2" stroke-linecap="round" stroke-linejoin="round"/>
<path id="Vector_11" d="M11.7149 26.4996H8.14355" stroke="white" stroke-width="2" stroke-linecap="round" stroke-linejoin="round"/>
<path id="Vector_12" d="M18.8574 26.4996H15.2861" stroke="white" stroke-width="2" stroke-linecap="round" stroke-linejoin="round"/>
<path id="Vector_13" d="M9.92944 14.0001H17.0721" stroke="white" stroke-width="2" stroke-linecap="round" stroke-linejoin="round"/>
<path id="Vector_14" d="M13.5005 10.4287V17.5714" stroke="white" stroke-width="2" stroke-linecap="round" stroke-linejoin="round"/>
</g>
</g>
</svg>
